<svg width="28" height="26" viewBox="0 0 28 26" fill="none" xmlns="http://www.w3.org/2000/svg">
<path d="M5.83137 3.66667H26.365L23.5714 13H7.33567M24.9682 18.3333H8.20629L5.41264 1H1.22217M9.60312 23.6667C9.60312 24.4031 8.97773 25 8.20629 25C7.43486 25 6.80947 24.4031 6.80947 23.6667C6.80947 22.9303 7.43486 22.3333 8.20629 22.3333C8.97773 22.3333 9.60312 22.9303 9.60312 23.6667ZM24.9682 23.6667C24.9682 24.4031 24.3428 25 23.5714 25C22.7999 25 22.1745 24.4031 22.1745 23.6667C22.1745 22.9303 22.7999 22.3333 23.5714 22.3333C24.3428 22.3333 24.9682 22.9303 24.9682 23.6667Z" stroke="#EEEFF1" stroke-width="2" stroke-linecap="round" stroke-linejoin="round"/>
</svg>
