 <svg width="26" height="21" viewBox="0 0 26 21" fill="none" xmlns="http://www.w3.org/2000/svg">
<path d="M3.47257 21H22.5274C24.8277 21 26 19.8548 26 17.5862V6.05666C26 3.78819 24.8277 2.65393 22.5274 2.65393H19.9395C19.077 2.65393 18.8116 2.47774 18.3139 1.92712L17.4181 0.936029C16.8762 0.330396 16.3122 0 15.162 0H10.7605C9.62142 0 9.05741 0.330396 8.50449 0.936029L7.60867 1.92712C7.12209 2.4667 6.84563 2.65393 5.98299 2.65393H3.47257C1.17228 2.65393 0 3.78819 0 6.05666V17.5862C0 19.8548 1.17228 21 3.47257 21ZM12.9945 17.4761C9.65464 17.4761 6.96728 14.8002 6.96728 11.4525C6.96728 8.10486 9.65464 5.42899 12.9945 5.42899C16.3565 5.42899 19.0328 8.10486 19.0328 11.4525C19.0328 14.8002 16.3454 17.4761 12.9945 17.4761ZM20.946 8.76561C20.1939 8.76561 19.5746 8.15993 19.5746 7.41113C19.5746 6.6513 20.1939 6.04562 20.946 6.04562C21.698 6.04562 22.3173 6.6513 22.3173 7.41113C22.3173 8.15993 21.698 8.76561 20.946 8.76561ZM12.9945 15.8023C15.4054 15.8023 17.3628 13.8642 17.3628 11.4525C17.3628 9.04089 15.4054 7.10277 12.9945 7.10277C10.5836 7.10277 8.63718 9.04089 8.63718 11.4525C8.63718 13.8642 10.5947 15.8023 12.9945 15.8023Z" fill="#B0B0B0"/>
</svg>
