<svg width="201" height="96" viewBox="0 0 201 96" fill="none" xmlns="http://www.w3.org/2000/svg">
<g filter="url(#filter0_d_34_154)">
<path d="M46.4219 48H31.7656C31.3906 48 30.9844 47.9583 30.5469 47.875C30.1198 47.7812 29.6927 47.6406 29.2656 47.4531C28.849 47.2656 28.4479 47.026 28.0625 46.7344C27.6771 46.4323 27.3333 46.0729 27.0313 45.6562C26.7396 45.2292 26.5052 44.7396 26.3281 44.1875C26.151 43.625 26.0625 42.9948 26.0625 42.2969V31.2969C26.0625 30.9219 26.1042 30.5208 26.1875 30.0938C26.2813 29.6562 26.4219 29.2292 26.6094 28.8125C26.7969 28.3854 27.0417 27.9792 27.3438 27.5938C27.6458 27.2083 28.0052 26.8698 28.4219 26.5781C28.849 26.276 29.3385 26.0365 29.8906 25.8594C30.4427 25.6823 31.0677 25.5938 31.7656 25.5938H46.4219V29.6562H31.7656C31.2344 29.6562 30.8281 29.7969 30.5469 30.0781C30.2656 30.3594 30.125 30.776 30.125 31.3281V42.2969C30.125 42.8177 30.2656 43.224 30.5469 43.5156C30.8385 43.7969 31.2448 43.9375 31.7656 43.9375H46.4219V48Z" fill="#F2F9EC"/>
<path d="M72.6563 33.125C72.6563 34.0521 72.5417 34.8802 72.3125 35.6094C72.0833 36.3385 71.7708 36.9844 71.375 37.5469C70.9896 38.099 70.5417 38.5729 70.0313 38.9688C69.5208 39.3646 68.9844 39.6927 68.4219 39.9531C67.8698 40.2031 67.3073 40.3854 66.7344 40.5C66.1719 40.6146 65.6406 40.6719 65.1406 40.6719L73.625 48H67.3438L58.875 40.6719H55.9531V36.6094H65.1406C65.651 36.5677 66.1146 36.4635 66.5313 36.2969C66.9583 36.1198 67.3229 35.8854 67.625 35.5938C67.9375 35.3021 68.1771 34.9531 68.3438 34.5469C68.5104 34.1302 68.5938 33.6562 68.5938 33.125V30.5625C68.5938 30.3333 68.5625 30.1615 68.5 30.0469C68.4479 29.9219 68.375 29.8333 68.2813 29.7812C68.1979 29.7188 68.1042 29.6823 68 29.6719C67.9063 29.6615 67.8177 29.6562 67.7344 29.6562H54.3281V48H50.2656V27.6406C50.2656 27.3594 50.3177 27.0938 50.4219 26.8438C50.526 26.5938 50.6667 26.375 50.8438 26.1875C51.0313 26 51.25 25.8542 51.5 25.75C51.75 25.6458 52.0208 25.5938 52.3125 25.5938H67.7344C68.6406 25.5938 69.4063 25.7604 70.0313 26.0938C70.6563 26.4167 71.1615 26.8281 71.5469 27.3281C71.9427 27.8177 72.224 28.349 72.3906 28.9219C72.5677 29.4948 72.6563 30.0312 72.6563 30.5312V33.125Z" fill="#F2F9EC"/>
<path d="M100.25 38.9375C100.25 40.3021 100.016 41.5573 99.5469 42.7031C99.0781 43.849 98.4271 44.8385 97.5938 45.6719C96.7604 46.5052 95.7708 47.1562 94.625 47.625C93.4896 48.0833 92.25 48.3125 90.9063 48.3125H85.4063C84.0625 48.3125 82.8177 48.0833 81.6719 47.625C80.526 47.1562 79.5365 46.5052 78.7031 45.6719C77.8698 44.8385 77.2135 43.849 76.7344 42.7031C76.2656 41.5573 76.0313 40.3021 76.0313 38.9375V34.6562C76.0313 33.3021 76.2656 32.0521 76.7344 30.9062C77.2135 29.75 77.8698 28.7604 78.7031 27.9375C79.5365 27.1042 80.526 26.4531 81.6719 25.9844C82.8177 25.5156 84.0625 25.2812 85.4063 25.2812H90.9063C92.25 25.2812 93.4896 25.5156 94.625 25.9844C95.7708 26.4531 96.7604 27.1042 97.5938 27.9375C98.4271 28.7604 99.0781 29.75 99.5469 30.9062C100.016 32.0521 100.25 33.3021 100.25 34.6562V38.9375ZM96.1875 34.6562C96.1875 33.8542 96.0573 33.1302 95.7969 32.4844C95.5469 31.8281 95.1875 31.2708 94.7188 30.8125C94.2604 30.3438 93.7031 29.9844 93.0469 29.7344C92.401 29.474 91.6875 29.3438 90.9063 29.3438H85.4063C84.6146 29.3438 83.8906 29.474 83.2344 29.7344C82.5885 29.9844 82.0313 30.3438 81.5625 30.8125C81.0938 31.2708 80.7292 31.8281 80.4688 32.4844C80.2188 33.1302 80.0938 33.8542 80.0938 34.6562V38.9375C80.0938 39.7396 80.2188 40.4688 80.4688 41.125C80.7292 41.7708 81.0938 42.3281 81.5625 42.7969C82.0313 43.2552 82.5885 43.6146 83.2344 43.875C83.8906 44.125 84.6146 44.25 85.4063 44.25H90.875C91.6667 44.25 92.3854 44.125 93.0313 43.875C93.6875 43.6146 94.25 43.2552 94.7188 42.7969C95.1875 42.3281 95.5469 41.7708 95.7969 41.125C96.0573 40.4688 96.1875 39.7396 96.1875 38.9375V34.6562Z" fill="#F2F9EC"/>
<path d="M126.219 25.5938L115.609 47.2031C115.443 47.5365 115.193 47.8021 114.859 48C114.536 48.2083 114.177 48.3125 113.781 48.3125C113.396 48.3125 113.036 48.2083 112.703 48C112.38 47.8021 112.13 47.5365 111.953 47.2031L101.359 25.5938H105.906L113.781 41.7344L121.688 25.5938H126.219Z" fill="#F2F9EC"/>
<path d="M146.938 38.8438H134.109V34.75H146.938V38.8438ZM148.766 48H134.109C133.547 48 132.932 47.901 132.266 47.7031C131.599 47.5052 130.979 47.1823 130.406 46.7344C129.844 46.276 129.37 45.6875 128.984 44.9688C128.609 44.2396 128.422 43.349 128.422 42.2969V27.6406C128.422 27.3594 128.474 27.0938 128.578 26.8438C128.682 26.5938 128.823 26.375 129 26.1875C129.188 26 129.406 25.8542 129.656 25.75C129.906 25.6458 130.177 25.5938 130.469 25.5938H148.766V29.6562H132.484V42.2969C132.484 42.8281 132.625 43.2344 132.906 43.5156C133.188 43.7969 133.599 43.9375 134.141 43.9375H148.766V48Z" fill="#F2F9EC"/>
<path d="M162.938 33.5938L169.781 25.5938H175.328L165.688 36.8281L175.266 48H169.75L162.938 40.0625L156.156 48H150.625L160.188 36.8281L150.594 25.5938H156.094L162.938 33.5938Z" fill="#F2F9EC"/>
<path d="M25.168 60.408C25.168 60.0453 25.136 59.608 25.072 59.096L26.272 58.936L26.448 59.944C26.736 59.7307 27.0187 59.544 27.296 59.384C27.5733 59.224 27.872 59.0853 28.192 58.968C28.512 58.8507 28.8373 58.792 29.168 58.792C29.7013 58.792 30.1227 58.888 30.432 59.08C30.7413 59.2613 30.9707 59.576 31.12 60.024C31.5573 59.7147 32.0107 59.432 32.48 59.176C32.96 58.92 33.456 58.792 33.968 58.792C34.3627 58.792 34.6987 58.8453 34.976 58.952C35.2533 59.048 35.4773 59.2133 35.648 59.448C35.8187 59.6827 35.9413 59.992 36.016 60.376C36.0907 60.76 36.128 61.24 36.128 61.816V67H34.848V61.96C34.848 61.64 34.8427 61.3573 34.832 61.112C34.8213 60.856 34.784 60.6427 34.72 60.472C34.656 60.2907 34.5493 60.152 34.4 60.056C34.2613 59.96 34.0587 59.912 33.792 59.912C33.5467 59.912 33.312 59.9493 33.088 60.024C32.8747 60.088 32.6507 60.184 32.416 60.312C32.1813 60.44 31.8187 60.7013 31.328 61.096V67H30.048V61.96C30.048 61.64 30.0427 61.3573 30.032 61.112C30.0213 60.856 29.984 60.6427 29.92 60.472C29.856 60.2907 29.7493 60.152 29.6 60.056C29.4613 59.96 29.2587 59.912 28.992 59.912C28.7147 59.912 28.4267 59.9707 28.128 60.088C27.8293 60.2053 27.5467 60.344 27.28 60.504C27.0133 60.664 26.736 60.8507 26.448 61.064V67H25.168V60.408Z" fill="#F2F9EC"/>
<path d="M42.8664 63.304C42.653 63.3147 42.4504 63.3253 42.2584 63.336C42.0664 63.3467 41.8744 63.3627 41.6824 63.384C41.501 63.3947 41.3357 63.4107 41.1864 63.432C40.4184 63.528 39.8744 63.6987 39.5544 63.944C39.2344 64.1787 39.0744 64.52 39.0744 64.968C39.0744 65.3413 39.1864 65.624 39.4104 65.816C39.645 65.9973 39.949 66.088 40.3224 66.088C40.8344 66.088 41.2877 66.0027 41.6824 65.832C42.0877 65.6507 42.4824 65.416 42.8664 65.128V63.304ZM42.8504 66.248C42.349 66.536 41.8797 66.7707 41.4424 66.952C41.0157 67.1227 40.5517 67.208 40.0504 67.208C39.3357 67.208 38.765 67.0373 38.3384 66.696C37.9224 66.344 37.7144 65.768 37.7144 64.968C37.7144 64.552 37.821 64.1893 38.0344 63.88C38.2477 63.5707 38.525 63.3147 38.8664 63.112C39.2184 62.8987 39.613 62.7333 40.0504 62.616C40.4877 62.4987 40.9357 62.424 41.3944 62.392C41.5864 62.3707 41.837 62.3547 42.1464 62.344C42.4557 62.3227 42.6957 62.3067 42.8664 62.296C42.8664 61.9227 42.8557 61.592 42.8344 61.304C42.813 61.0053 42.749 60.7547 42.6424 60.552C42.5357 60.3387 42.3757 60.1787 42.1624 60.072C41.9597 59.9653 41.6664 59.912 41.2824 59.912C40.973 59.912 40.6744 59.9333 40.3864 59.976C40.0984 60.008 39.8424 60.0453 39.6184 60.088C39.3517 60.1413 39.1064 60.2 38.8824 60.264L38.6264 59.16C38.893 59.096 39.181 59.0373 39.4904 58.984C39.757 58.9307 40.0664 58.888 40.4184 58.856C40.7704 58.8133 41.149 58.792 41.5544 58.792C42.0984 58.792 42.5357 58.872 42.8664 59.032C43.2077 59.192 43.469 59.4107 43.6504 59.688C43.8424 59.9547 43.9704 60.264 44.0344 60.616C44.109 60.9573 44.1464 61.32 44.1464 61.704V65.544C44.1464 65.6933 44.1464 65.8533 44.1464 66.024C44.157 66.184 44.1677 66.344 44.1784 66.504C44.1997 66.664 44.221 66.8293 44.2424 67L43.0104 67.128L42.8504 66.248Z" fill="#F2F9EC"/>
<path d="M46.418 60.248C46.418 60.0027 46.3913 59.6187 46.338 59.096L47.522 58.936L47.65 60.104H47.666C47.858 59.8587 48.0447 59.6453 48.226 59.464C48.4073 59.2827 48.594 59.128 48.786 59C48.9887 58.8613 49.1807 58.792 49.362 58.792C49.6073 58.7813 49.9487 58.808 50.386 58.872L50.098 60.104C49.746 60.04 49.5007 60.0133 49.362 60.024C49.1807 60.024 48.9887 60.1093 48.786 60.28C48.5833 60.4507 48.4073 60.632 48.258 60.824C48.066 61.0587 47.8793 61.3253 47.698 61.624V67H46.418V60.248Z" fill="#F2F9EC"/>
<path d="M51.7926 55.016L53.0726 54.872V62.088L56.6406 58.952H58.4006L54.9126 62.008L58.5286 67H56.9126L53.9686 62.824L53.0726 63.608V67H51.7926V55.016Z" fill="#F2F9EC"/>
<path d="M65.354 66.808C65.1087 66.8827 64.8527 66.9467 64.586 67C64.33 67.0533 64.042 67.1013 63.722 67.144C63.4127 67.1867 63.0873 67.208 62.746 67.208C62.2127 67.208 61.7167 67.1333 61.258 66.984C60.7993 66.8347 60.3993 66.5947 60.058 66.264C59.7167 65.9333 59.4447 65.5067 59.242 64.984C59.05 64.4507 58.954 63.8 58.954 63.032C58.954 62.3387 59.05 61.7307 59.242 61.208C59.434 60.6747 59.6953 60.232 60.026 59.88C60.3673 59.5173 60.762 59.2453 61.21 59.064C61.6687 58.8827 62.1647 58.792 62.698 58.792C63.2207 58.792 63.674 58.8933 64.058 59.096C64.442 59.2987 64.7567 59.576 65.002 59.928C65.258 60.2693 65.4447 60.6747 65.562 61.144C65.69 61.6027 65.754 62.088 65.754 62.6L65.514 63.304H60.346C60.346 63.6347 60.3887 63.9653 60.474 64.296C60.5593 64.6267 60.7033 64.9253 60.906 65.192C61.1193 65.4587 61.3913 65.6773 61.722 65.848C62.0633 66.008 62.4847 66.088 62.986 66.088C63.306 66.088 63.5993 66.072 63.866 66.04C64.1327 65.9973 64.362 65.9547 64.554 65.912C64.7567 65.8587 64.9433 65.8 65.114 65.736L65.354 66.808ZM64.426 62.28C64.426 62.2053 64.41 62.04 64.378 61.784C64.346 61.528 64.2713 61.2613 64.154 60.984C64.0367 60.7067 63.8553 60.4613 63.61 60.248C63.3647 60.024 63.0393 59.912 62.634 59.912C62.186 59.912 61.818 60.008 61.53 60.2C61.242 60.3813 61.0127 60.6 60.842 60.856C60.6713 61.112 60.554 61.3733 60.49 61.64C60.426 61.9067 60.394 62.12 60.394 62.28H64.426Z" fill="#F2F9EC"/>
<path d="M69.3678 56.552V58.952H71.6878V59.992H69.3678V64.264C69.3678 64.616 69.3731 64.9093 69.3838 65.144C69.4051 65.3787 69.4424 65.5653 69.4958 65.704C69.5491 65.8427 69.6238 65.944 69.7198 66.008C69.8158 66.0613 69.9384 66.088 70.0878 66.088C70.4931 66.0773 70.9624 65.928 71.4958 65.64L71.8798 66.616C71.5278 66.8507 71.1971 67.0053 70.8878 67.08C70.5891 67.1653 70.2904 67.208 69.9918 67.208C69.2878 67.208 68.7918 67.0107 68.5038 66.616C68.2264 66.2107 68.0878 65.544 68.0878 64.616V59.992H66.6158V58.952H68.0878V56.712L69.3678 56.552Z" fill="#F2F9EC"/>
<path d="M73.3399 60.808C73.3399 60.424 73.3132 59.8533 73.2599 59.096L74.4439 58.936L74.5879 59.8C74.8012 59.6187 75.0199 59.4587 75.2439 59.32C75.4785 59.1707 75.7292 59.048 75.9959 58.952C76.2732 58.8453 76.5665 58.792 76.8759 58.792C77.3132 58.792 77.7239 58.8667 78.1079 59.016C78.5025 59.1653 78.8439 59.4053 79.1319 59.736C79.4305 60.0667 79.6652 60.4987 79.8359 61.032C80.0065 61.5547 80.0919 62.2 80.0919 62.968C80.0919 63.7467 79.9746 64.408 79.7399 64.952C79.5159 65.4853 79.2172 65.9227 78.8439 66.264C78.4812 66.5947 78.0652 66.8347 77.5959 66.984C77.1372 67.1333 76.6679 67.208 76.1879 67.208C75.6759 67.1973 75.1532 67.1333 74.6199 67.016V70.488L73.3399 70.648V60.808ZM76.1879 66.088C76.6359 66.088 77.0199 66.008 77.3399 65.848C77.6599 65.688 77.9212 65.4693 78.1239 65.192C78.3372 64.904 78.4919 64.5787 78.5879 64.216C78.6839 63.8427 78.7319 63.448 78.7319 63.032C78.7319 62.6587 78.6945 62.2853 78.6199 61.912C78.5559 61.5387 78.4439 61.208 78.2839 60.92C78.1345 60.6213 77.9319 60.3813 77.6759 60.2C77.4199 60.008 77.1052 59.912 76.7319 59.912C76.4545 59.912 76.1932 59.9653 75.9479 60.072C75.7025 60.168 75.4679 60.2907 75.2439 60.44C75.0305 60.5787 74.8225 60.7387 74.6199 60.92V65.832C74.7372 65.8747 74.8652 65.9173 75.0039 65.96C75.1532 65.992 75.3239 66.024 75.5159 66.056C75.7185 66.0773 75.9425 66.088 76.1879 66.088Z" fill="#F2F9EC"/>
<path d="M81.9645 55.016L83.2445 54.872V67H81.9645V55.016Z" fill="#F2F9EC"/>
<path d="M90.0226 63.304C89.8093 63.3147 89.6066 63.3253 89.4146 63.336C89.2226 63.3467 89.0306 63.3627 88.8386 63.384C88.6573 63.3947 88.492 63.4107 88.3426 63.432C87.5746 63.528 87.0306 63.6987 86.7106 63.944C86.3906 64.1787 86.2306 64.52 86.2306 64.968C86.2306 65.3413 86.3426 65.624 86.5666 65.816C86.8013 65.9973 87.1053 66.088 87.4786 66.088C87.9906 66.088 88.444 66.0027 88.8386 65.832C89.244 65.6507 89.6386 65.416 90.0226 65.128V63.304ZM90.0066 66.248C89.5053 66.536 89.036 66.7707 88.5986 66.952C88.172 67.1227 87.708 67.208 87.2066 67.208C86.492 67.208 85.9213 67.0373 85.4946 66.696C85.0786 66.344 84.8706 65.768 84.8706 64.968C84.8706 64.552 84.9773 64.1893 85.1906 63.88C85.404 63.5707 85.6813 63.3147 86.0226 63.112C86.3746 62.8987 86.7693 62.7333 87.2066 62.616C87.644 62.4987 88.092 62.424 88.5506 62.392C88.7426 62.3707 88.9933 62.3547 89.3026 62.344C89.612 62.3227 89.852 62.3067 90.0226 62.296C90.0226 61.9227 90.012 61.592 89.9906 61.304C89.9693 61.0053 89.9053 60.7547 89.7986 60.552C89.692 60.3387 89.532 60.1787 89.3186 60.072C89.116 59.9653 88.8226 59.912 88.4386 59.912C88.1293 59.912 87.8306 59.9333 87.5426 59.976C87.2546 60.008 86.9986 60.0453 86.7746 60.088C86.508 60.1413 86.2626 60.2 86.0386 60.264L85.7826 59.16C86.0493 59.096 86.3373 59.0373 86.6466 58.984C86.9133 58.9307 87.2226 58.888 87.5746 58.856C87.9266 58.8133 88.3053 58.792 88.7106 58.792C89.2546 58.792 89.692 58.872 90.0226 59.032C90.364 59.192 90.6253 59.4107 90.8066 59.688C90.9986 59.9547 91.1266 60.264 91.1906 60.616C91.2653 60.9573 91.3026 61.32 91.3026 61.704V65.544C91.3026 65.6933 91.3026 65.8533 91.3026 66.024C91.3133 66.184 91.324 66.344 91.3346 66.504C91.356 66.664 91.3773 66.8293 91.3986 67L90.1666 67.128L90.0066 66.248Z" fill="#F2F9EC"/>
<path d="M98.5503 60.12C98.3689 60.0773 98.1183 60.0347 97.7983 59.992C97.4783 59.9387 97.1529 59.912 96.8223 59.912C96.3423 59.912 95.9476 60.008 95.6383 60.2C95.3396 60.392 95.1049 60.6427 94.9343 60.952C94.7636 61.2507 94.6463 61.5867 94.5823 61.96C94.5183 62.3227 94.4863 62.68 94.4863 63.032C94.4863 63.576 94.5556 64.0453 94.6943 64.44C94.8329 64.824 95.0143 65.1387 95.2383 65.384C95.4729 65.6293 95.7396 65.8107 96.0383 65.928C96.3369 66.0347 96.6516 66.088 96.9823 66.088C97.2063 66.088 97.4196 66.0773 97.6223 66.056C97.8356 66.024 98.0276 65.992 98.1983 65.96C98.3796 65.9173 98.5503 65.8693 98.7103 65.816L98.9663 66.888C98.7423 66.952 98.5343 67.0053 98.3423 67.048C98.1503 67.0907 97.9209 67.128 97.6543 67.16C97.3983 67.192 97.1209 67.208 96.8223 67.208C96.2356 67.208 95.7129 67.1333 95.2543 66.984C94.7956 66.8347 94.4063 66.5947 94.0863 66.264C93.7769 65.9333 93.5369 65.5013 93.3663 64.968C93.2063 64.4347 93.1263 63.784 93.1263 63.016C93.1263 62.2693 93.2276 61.6293 93.4303 61.096C93.6436 60.552 93.9209 60.1147 94.2623 59.784C94.6036 59.4427 94.9929 59.192 95.4303 59.032C95.8783 58.872 96.3423 58.792 96.8223 58.792C97.0783 58.792 97.3236 58.808 97.5583 58.84C97.8036 58.8613 98.0169 58.888 98.1983 58.92C98.4116 58.9627 98.6143 59.0053 98.8063 59.048L98.5503 60.12Z" fill="#F2F9EC"/>
<path d="M106.307 66.808C106.062 66.8827 105.806 66.9467 105.539 67C105.283 67.0533 104.995 67.1013 104.675 67.144C104.366 67.1867 104.04 67.208 103.699 67.208C103.166 67.208 102.67 67.1333 102.211 66.984C101.752 66.8347 101.352 66.5947 101.011 66.264C100.67 65.9333 100.398 65.5067 100.195 64.984C100.003 64.4507 99.9071 63.8 99.9071 63.032C99.9071 62.3387 100.003 61.7307 100.195 61.208C100.387 60.6747 100.648 60.232 100.979 59.88C101.32 59.5173 101.715 59.2453 102.163 59.064C102.622 58.8827 103.118 58.792 103.651 58.792C104.174 58.792 104.627 58.8933 105.011 59.096C105.395 59.2987 105.71 59.576 105.955 59.928C106.211 60.2693 106.398 60.6747 106.515 61.144C106.643 61.6027 106.707 62.088 106.707 62.6L106.467 63.304H101.299C101.299 63.6347 101.342 63.9653 101.427 64.296C101.512 64.6267 101.656 64.9253 101.859 65.192C102.072 65.4587 102.344 65.6773 102.675 65.848C103.016 66.008 103.438 66.088 103.939 66.088C104.259 66.088 104.552 66.072 104.819 66.04C105.086 65.9973 105.315 65.9547 105.507 65.912C105.71 65.8587 105.896 65.8 106.067 65.736L106.307 66.808ZM105.379 62.28C105.379 62.2053 105.363 62.04 105.331 61.784C105.299 61.528 105.224 61.2613 105.107 60.984C104.99 60.7067 104.808 60.4613 104.563 60.248C104.318 60.024 103.992 59.912 103.587 59.912C103.139 59.912 102.771 60.008 102.483 60.2C102.195 60.3813 101.966 60.6 101.795 60.856C101.624 61.112 101.507 61.3733 101.443 61.64C101.379 61.9067 101.347 62.12 101.347 62.28H105.379Z" fill="#F2F9EC"/>
</g>
<defs>
<filter id="filter0_d_34_154" x="0.0720062" y="0.28125" width="200.256" height="95.3667" filterUnits="userSpaceOnUse" color-interpolation-filters="sRGB">
<feFlood flood-opacity="0" result="BackgroundImageFix"/>
<feColorMatrix in="SourceAlpha" type="matrix" values="0 0 0 0 0 0 0 0 0 0 0 0 0 0 0 0 0 0 127 0" result="hardAlpha"/>
<feOffset/>
<feGaussianBlur stdDeviation="12.5"/>
<feComposite in2="hardAlpha" operator="out"/>
<feColorMatrix type="matrix" values="0 0 0 0 0.866667 0 0 0 0 0.866667 0 0 0 0 0.866667 0 0 0 0.25 0"/>
<feBlend mode="normal" in2="BackgroundImageFix" result="effect1_dropShadow_34_154"/>
<feBlend mode="normal" in="SourceGraphic" in2="effect1_dropShadow_34_154" result="shape"/>
</filter>
</defs>
</svg>
