<svg width="24" height="24" viewBox="0 0 24 24" fill="none" xmlns="http://www.w3.org/2000/svg">
<path fill-rule="evenodd" clip-rule="evenodd" d="M16.8998 7.19999C16.8998 4.55278 14.7022 2.39998 12 2.39998C9.29781 2.39998 7.10027 4.55278 7.10027 7.19999C7.10027 9.8472 9.29781 12 12 12C14.7022 12 16.8998 9.8472 16.8998 7.19999ZM21.535 24H19.3497C18.6735 24 18.1247 23.4624 18.1247 22.8C18.1247 22.1376 18.6735 21.6 19.3497 21.6H19.8751C20.7228 21.6 21.3488 20.7636 21.0278 19.9944C19.5444 16.4376 16.0607 14.4 12 14.4C7.93936 14.4 4.45562 16.4376 2.97222 19.9944C2.65129 20.7636 3.27725 21.6 4.12491 21.6H4.65039C5.32655 21.6 5.87533 22.1376 5.87533 22.8C5.87533 23.4624 5.32655 24 4.65039 24H2.46509C0.933921 24 -0.271419 22.6284 0.05319 21.1632C0.944944 17.1324 3.72925 14.1576 7.39671 12.8076C5.72345 11.4888 4.65039 9.468 4.65039 7.19999C4.65039 2.93878 8.42811 -0.457228 12.8808 0.0503723C16.1073 0.417573 18.78 2.93632 19.2639 6.08392C19.6804 8.79714 18.5473 11.2752 16.6033 12.8076C20.2708 14.1576 23.0551 17.1324 23.9469 21.1632C24.2715 22.6284 23.0661 24 21.535 24ZM15.6748 22.8C15.6748 23.4624 15.1261 24 14.4499 24H9.55015C8.87398 24 8.3252 23.4624 8.3252 22.8C8.3252 22.1376 8.87398 21.6 9.55015 21.6H14.4499C15.1261 21.6 15.6748 22.1376 15.6748 22.8Z" fill="#EEEFF1"/>
</svg>
