<svg width="17" height="17" viewBox="0 0 17 17" fill="none" xmlns="http://www.w3.org/2000/svg">
<path d="M3.43313 2.66667H16.5L14.7222 8.5H4.39041M15.6111 11.8333H4.94444L3.16667 1H0.5M5.83333 15.1667C5.83333 15.6269 5.43536 16 4.94444 16C4.45353 16 4.05556 15.6269 4.05556 15.1667C4.05556 14.7064 4.45353 14.3333 4.94444 14.3333C5.43536 14.3333 5.83333 14.7064 5.83333 15.1667ZM15.6111 15.1667C15.6111 15.6269 15.2132 16 14.7222 16C14.2313 16 13.8333 15.6269 13.8333 15.1667C13.8333 14.7064 14.2313 14.3333 14.7222 14.3333C15.2132 14.3333 15.6111 14.7064 15.6111 15.1667Z" stroke="#EEEFF1" stroke-linecap="round" stroke-linejoin="round"/>
</svg>
